<svg id="Layer_1" data-name="Layer 1" xmlns="http://www.w3.org/2000/svg" viewBox="0 0 607.24548 299.89364"><defs><style>.cls-1{fill:#fff;}</style></defs><title>logo_white_nosubtitle</title><path class="cls-1" d="M997.24237,969.97839c3.86755,0.0022,7.74719-.03955,11.633-0.00146,7.76721,0.06519,15.57288.24841,23.37293,0.5282,15.6051,0.51111,31.19263,1.39856,46.52173,2.60474,1.82813,0.14185,3.63757.29785,5.45727,0.446,0.187-.16846.37647-0.34009,0.56274-0.50806,1.12964-1.01782,2.23877-2.02,3.3302-3.01758-3.007-.26917-6.01672-0.53516-9.04565-0.77063-15.37122-1.25378-31.02551-2.19934-46.69031-2.74976q-11.75153-.38654-23.48547-0.46057c-3.9054-.02673-7.80182.02673-11.68738,0.03625q-5.82733.091-11.61627,0.18152c-15.43048.35291-30.59955,1.20728-45.252,2.32532-14.65314,1.12915-28.77887,2.68274-42.1286,4.472-13.34851,1.79028-25.922,3.81879-37.48022,5.92236-11.567,2.064-22.1,4.32037-31.404,6.43738-9.30469,2.11731-17.37561,4.128-24.00671,5.83679-6.6297,1.71411-11.80682,3.1875-15.33417,4.18683C786.46478,996.46008,784.585,997,784.585,997s1.89917-.46735,5.46014-1.34369c3.56036-.881,8.798-2.09393,15.4621-3.64282,6.67133-1.51709,14.78644-3.29382,24.13123-5.14087,9.3465-1.8374,19.916-3.77216,31.47748-5.676,11.56342-1.8963,24.12817-3.69861,37.45917-5.24982,13.32935-1.55725,27.42773-2.80518,42.02612-3.85059,14.60223-1.00952,29.716-1.6366,45.07684-1.97156Q991.43927,970.05176,997.24237,969.97839Z" transform="translate(-688.62891 -840.82414)"/><path class="cls-1" d="M1271.87842,1012.375c-3.41052-1.34753-8.39453-3.37982-14.82825-5.72955-6.42529-2.37189-14.27478-5.12927-23.35254-8.081-9.07886-2.94226-19.39587-6.069-30.77441-9.01532-11.36963-2.98267-23.78064-5.875-37.00049-8.4884-13.22766-2.62036-27.2312-4.93323-41.79455-6.95624-7.97339-1.10266-16.12573-2.0802-24.38477-2.946-1.20947,1.1499-2.45117,2.28955-3.709,3.42212,9.37061,0.86206,18.61206,1.83246,27.62817,3.01538,14.49939,1.9317,28.52661,3.95782,41.71985,6.33209,13.20251,2.36951,25.6106,5.03168,36.9895,7.80383,11.37805,2.78241,21.74268,5.59509,30.887,8.25586,9.13684,2.68268,17.05,5.20886,23.53284,7.392,6.48169,2.1864,11.55542,3.96735,15.0094,5.19818,3.44592,1.25354,5.28381,1.92206,5.28381,1.92206S1275.27393,1013.76086,1271.87842,1012.375Z" transform="translate(-688.62891 -840.82414)"/><path class="cls-1" d="M1030.835,1138.80762l28.07813-112.03125h65.94922l-3.12988,12.68555h-53.67285l-8.77246,35h52.23633l-3.13867,12.68555H1056.1084l-9.76758,38.97461h57.48828l-3.21387,12.68555H1030.835Z" transform="translate(-688.62891 -840.82414)"/><path class="cls-1" d="M1116.42481,1138.80762l28.07715-112.03125h27.708q9.312,0,14.084,1.45117a26.32785,26.32785,0,0,1,12.17188,7.71973q5.16065,5.6543,7.46777,15.05469a68.293,68.293,0,0,1,1.33691,21.626,87.20944,87.20944,0,0,1-7.34766,29.53613,81.30767,81.30767,0,0,1-14.1084,21.89453,44.15272,44.15272,0,0,1-18.17383,12.07422,55.36687,55.36687,0,0,1-18.15625,2.6748h-33.05957Zm15.50586-12.68555h14.56348a61.78651,61.78651,0,0,0,17.51953-2.17871,31.213,31.213,0,0,0,13.44531-8.49219q6.14356-6.30908,11.2041-17.70606a78.90151,78.90151,0,0,0,6.21484-25.92871q1.01367-12.7749-2.00586-20.30762-3.019-7.53223-9.05859-10.13477-4.34326-1.91162-13.93945-1.91211h-16.22461Z" transform="translate(-688.62891 -840.82414)"/><path class="cls-1" d="M1214.82519,1102.585l12.10742-1.376-0.375,3.75586a27.02024,27.02024,0,0,0,2.00293,13.334,15.24531,15.24531,0,0,0,7.19336,7.24316,26.99248,26.99248,0,0,0,12.83008,2.79688q10.48535,0,17.0498-5.55273a19.53517,19.53517,0,0,0,7.22168-13.82617,14.60153,14.60153,0,0,0-2.67383-10.11035q-3.21826-4.21289-15.88672-11.166-9.81006-5.42725-13.24316-8.17773a29.674,29.674,0,0,1-8.90332-10.9668,27.75616,27.75616,0,0,1-2.06738-13.7168q1.06787-13.44873,10.32129-21.70312,9.252-8.25439,24.23047-8.25391,10.31689,0,17.34375,3.89844a25.79531,25.79531,0,0,1,10.749,11.38574,30.058,30.058,0,0,1,3.04394,16.04883l-0.26562,2.36914-12.01172,1.14551,0.27637-2.52637a18.86347,18.86347,0,0,0-1.9082-10.123,16.38339,16.38339,0,0,0-7.18164-7.248,24.015,24.015,0,0,0-11.41113-2.56934q-9.3999,0-15,4.60059a16.72649,16.72649,0,0,0-6.19629,12.1123q-0.542,6.82471,3.0957,10.50391,3.63574,3.67969,18.56348,12.07813,10.89551,6.186,14.70605,10.04395a24.03049,24.03049,0,0,1,5.64844,9.24414,29.85055,29.85055,0,0,1,1.30859,12.11035,33.70088,33.70088,0,0,1-11.72852,23.41992q-10.61279,9.36035-26.60059,9.3584-17.291,0-25.50879-9.209Q1213.335,1122.30078,1214.82519,1102.585Z" transform="translate(-688.62891 -840.82414)"/><path class="cls-1" d="M1200.91467,840.91931s-2.41711,1.79517-3.75842,2.92444c-0.4596.387-4.50732,4.10352-5.391,5.09216-1.45654,1.63-.94946.84607-4.43188,4.73071-2.80713,3.13135-7.75,8.25-10.75,12.5-3.39368,4.80774-5.45935,6.714-10,12.91675-2.06775,2.82446-14.10669,17.91809-16.25,21.25-2.14844,3.355-17.5238,23.08325-20,26.375-6.07459,8.07544-8.432,10.76733-17.41663,20.87488-6.297,7.084-7.2854,8.25293-15.21643,16.53052-6.451,6.733-11.91834,11.32227-20.39331,19.34454-6.66235,6.3064-13.98828,12.58319-20.84863,18.75-6.90149,6.20374-13.84473,11.52643-20.375,17.375-6.5404,5.8457-13.83093,10.689-20.05621,15.69666-6.2323,4.99731-12.19,9.64319-17.73688,13.80627-11.10327,8.3374-20.59692,14.83063-27.28986,19.26184-3.34821,2.21307-5.994,3.91974-7.80194,5.07385-1.80975,1.15008-2.775,1.76355-2.775,1.76355s0.98126-.57257,2.82129-1.64618c1.83862-1.07782,4.53015-2.67328,7.94012-4.74689,6.81683-4.15289,16.49933-10.255,27.87183-18.15539,5.69141-3.95209,11.78223-8.35211,18.18823-13.11493,6.40076-4.7749,14.44489-10.31287,21.21344-15.93878,6.76819-5.6377,13.05664-10.25732,19.875-16.625,6.82727-6.36273,14.37805-12.39355,21.25-19,6.76111-6.49994,17.38123-15.34039,23.97571-22.15,6.64331-6.86011,9.86646-9.55408,16.02429-16.225,6-6.5,10.89075-11.42224,16.5-17.66675,3.3999-3.78491,20.47546-23.678,23.125-26.45825,3.375-3.54175,15.78809-19.20679,18.16663-22.125,4.95837-6.08337,7.361-9.538,10.91663-14.33337a69.33515,69.33515,0,0,0,5.83337-8.65625c2.30713-3.91284,2.0813-3.584,3.25-5.65625,1.00452-1.78113,1.76965-3.14709,3.4375-6.6875a38.96344,38.96344,0,0,0,1.56494-3.94934Z" transform="translate(-688.62891 -840.82414)"/><path class="cls-1" d="M1041.27246,1017.08032c-1.78174,1.44037-4.4054,3.53949-7.77441,6.17017-6.74133,5.25513-16.494,12.60895-28.58118,20.85046-6.03656,4.11822-12.68,8.45715-19.75549,12.92975-7.08221,4.45978-14.6579,8.97241-22.63409,13.37549-7.97485,4.39063-16.34528,8.69519-24.99005,12.76453-8.63635,4.077-17.54456,7.8841-26.56342,11.4953-9.03882,3.5932-18.09686,7.2323-27.02472,10.47839-8.94629,3.25311-17.82483,6.084-26.54443,8.53845-8.70148,2.45636-17.18982,4.52271-25.28314,6.2359-4.05579.8678-8.56183,2.01556-12.49652,2.76876-3.91144.75877-7.06812,1.27519-10.47992,1.7183-6.9635.90436-13.21271,1.56909-19.09509,1.77026-5.84381.18433-10.84467,0.06537-15.05,0.07391-4.20679.00159-6.2525-.01562-8.43752-0.09375-1.13481-.03735-1.78379.02075-2.68711,0.02393-0.5589.002-2.09192-.05133-2.25256-0.057l0.00024-.0011H704.13477l9.76758-38.97461h52.27637l3.13818-12.68555H717.08057l8.77246-35h53.67285l3.13037-12.68555H716.707l-28.07812,112.03125h69.78027s3.50128-.01422,4.09082,0c0.57788,0.01135,7.97931.09168,9.125,0.03369,2.18634-.11066,13.89142.12537,18.19635-0.17108a90.84366,90.84366,0,0,0,14.067-2.04016c7.73669-1.56754,9.33228-2.00964,13.23669-2.88007,3.70026-.82489,6.00513-1.30835,9.75-2.375,7.38269-2.10278,3.28845-1.0531,7.38269-2.10278,8.21375-2.08569,16.8053-4.546,25.58508-7.40857,8.76563-2.84985,17.771-6.12347,26.72772-9.79352,8.97552-3.67749,17.86871-7.67249,26.80432-11.64484,8.937-3.99988,17.816-8.22119,26.38092-12.69165,8.56586-4.45813,16.84039-9.1405,24.71735-13.89587,7.86621-4.76141,15.31555-9.61188,22.25476-14.37811,6.93024-4.77777,13.40179-9.38257,19.30292-13.76245,11.79462-8.75018,21.26453-16.50171,27.80054-22.0282,3.266-2.76636,5.806-4.96979,7.53015-6.48083L1044,1014.86585Z" transform="translate(-688.62891 -840.82414)"/><path class="cls-1" d="M1200.91467,840.93035a1.02729,1.02729,0,0,1,1.31552.35882,1.06469,1.06469,0,0,1,.14723.7615" transform="translate(-688.62891 -840.82414)"/><path class="cls-1" d="M978.41113,1058.31787a18.40616,18.40616,0,0,1-.13965-4.35889,16.72821,16.72821,0,0,1,6.19629-12.1123q5.59863-4.59961,15-4.60059a25.72217,25.72217,0,0,1,8.90857,1.456q6.02975-4.20721,11.9602-8.58356c-0.69507-.4787-1.408-0.93793-2.15979-1.35486q-7.02832-3.89795-17.34375-3.89844-14.98022,0-24.231,8.25391-9.25269,8.25293-10.32129,21.70313a29.81645,29.81645,0,0,0,.82526,10.18323Q972.7507,1061.77579,978.41113,1058.31787Z" transform="translate(-688.62891 -840.82414)"/><path class="cls-1" d="M1024.97022,1034.238c-3.43756,2.76617-6.89929,5.50751-10.39661,8.18921a16.04167,16.04167,0,0,1,3.48694,4.63623,18.86346,18.86346,0,0,1,1.9082,10.123l-0.27637,2.52637,12.01172-1.14551,0.26563-2.36914a30.058,30.058,0,0,0-3.04395-16.04883A27.35058,27.35058,0,0,0,1024.97022,1034.238Z" transform="translate(-688.62891 -840.82414)"/><path class="cls-1" d="M1014.63672,1086.585q-3.81006-3.85693-14.70605-10.04395-13.10742-7.37439-17.50732-11.11017-5.77606,3.84576-11.56989,7.45795a33.25526,33.25526,0,0,0,6.399,6.61707q3.43213,2.751,13.24219,8.17773,12.66724,6.95361,15.88818,11.166a14.606,14.606,0,0,1,2.67285,10.11035,19.53517,19.53517,0,0,1-7.22168,13.82617q-6.564,5.55176-17.05029,5.55273a26.99043,26.99043,0,0,1-12.82959-2.79687,15.24314,15.24314,0,0,1-7.19336-7.24316,27.0147,27.0147,0,0,1-2.00293-13.334l0.37451-3.75586-12.10693,1.376q-1.48975,19.71533,6.73,28.92383,8.21924,9.21094,25.50928,9.209,15.9873,0,26.60059-9.3584a33.70088,33.70088,0,0,0,11.72852-23.41992,29.85055,29.85055,0,0,0-1.30859-12.11035A24.03049,24.03049,0,0,0,1014.63672,1086.585Z" transform="translate(-688.62891 -840.82414)"/><path class="cls-1" d="M871.40619,1120.5835l-4.56732,18.22363H879.165l5.8623-23.388Q878.32239,1118.10977,871.40619,1120.5835Z" transform="translate(-688.62891 -840.82414)"/><path class="cls-1" d="M883.09473,1102.8374c1.85724-.67523,3.73041-1.37463,5.6087-2.08447l3.1994-12.76416h28.82123c5.567-2.36206,10.778-4.69073,15.74567-7.03613q2.8743-1.353,5.77106-2.775l0.71039-2.87537H895.0791l8.98389-35.84082H951.0708l3.147-12.68555H894.917l-19.7572,78.831C877.82715,1104.70618,880.47943,1103.78845,883.09473,1102.8374Z" transform="translate(-688.62891 -840.82414)"/><path class="cls-1" d="M778.77344,1123.80664c3.30664,0.02148,7.05273.0459,11.19775-.08594,0.11877-.00409.23944-0.00928,0.35883-0.01373l8.68512-34.64935h13.94824q7.12354,0,10.17236,1.75879,3.04761,1.75781,5.55371,7.03027a93.07643,93.07643,0,0,1,6.39032,18.90338q6.25891-1.38538,12.48657-2.97943a103.431,103.431,0,0,0-6.164-15.78821,34.3978,34.3978,0,0,0-7.16553-9.53613q15.60278-2.5957,23.98486-11.19531,8.38037-8.5957,9.54-23.19238,0.77051-9.70459-2.29053-16.73633a15.4996,15.4996,0,0,0-7.48-7.87207q-5.25439-2.67334-17.61914-2.67383h-38.0752l-24.31744,97.02625C778.24536,1123.804,778.502,1123.80505,778.77344,1123.80664Zm32.76758-84.72656h29.4043q7.03418,0,9.69531,1.33691a9.38172,9.38172,0,0,1,4.22021,4.81543,17.55228,17.55228,0,0,1,1.15039,8.59668,25.44781,25.44781,0,0,1-2.998,10.31738,23.96264,23.96264,0,0,1-6.50439,7.67969,21.85225,21.85225,0,0,1-8.99561,4.0498q-5.03906,1.03271-18.85693,1.03125h-16.5957Z" transform="translate(-688.62891 -840.82414)"/><path class="cls-1" d="M838.35229,1130.82385l1.85083,7.98376h13.74121l-2.894-11.5517Q844.73233,1129.14255,838.35229,1130.82385Z" transform="translate(-688.62891 -840.82414)"/><polygon class="cls-1" points="436.346 75.504 444.621 65.518 470.946 54.868 466.089 83.307 457.814 93.293 436.346 75.504"/></svg>